<svg width="1200" height="800" viewBox="0 0 1200 800" fill="none" xmlns="http://www.w3.org/2000/svg">
<rect width="1200" height="800" rx="36" fill="#0A0E1A"/>
<rect x="40" y="40" width="1120" height="720" rx="30" fill="#10192B" stroke="#1F314A"/>
<rect x="72" y="72" width="240" height="656" rx="24" fill="#0E1525"/>
<rect x="344" y="72" width="784" height="108" rx="24" fill="#12233D"/>
<rect x="344" y="212" width="248" height="170" rx="24" fill="#12324D"/>
<rect x="624" y="212" width="248" height="170" rx="24" fill="#12324D"/>
<rect x="904" y="212" width="224" height="170" rx="24" fill="#12324D"/>
<rect x="344" y="414" width="504" height="282" rx="24" fill="#0D1525" stroke="#23476A"/>
<rect x="880" y="414" width="248" height="282" rx="24" fill="#0D1525" stroke="#23476A"/>
<rect x="104" y="132" width="176" height="24" rx="12" fill="#FDDC02" fill-opacity="0.9"/>
<rect x="104" y="188" width="144" height="16" rx="8" fill="#89A0C0" fill-opacity="0.7"/>
<rect x="104" y="236" width="160" height="16" rx="8" fill="#89A0C0" fill-opacity="0.35"/>
<rect x="104" y="284" width="138" height="16" rx="8" fill="#89A0C0" fill-opacity="0.35"/>
<rect x="104" y="332" width="154" height="16" rx="8" fill="#89A0C0" fill-opacity="0.35"/>
<rect x="104" y="380" width="128" height="16" rx="8" fill="#89A0C0" fill-opacity="0.35"/>
<rect x="376" y="104" width="210" height="24" rx="12" fill="#E8EDF5"/>
<rect x="376" y="140" width="280" height="14" rx="7" fill="#8AA0B8" fill-opacity="0.5"/>
<circle cx="1052" cy="126" r="26" fill="#FDDC02" fill-opacity="0.9"/>
<path d="M420 620L482 560L544 590L646 486L736 520L812 448" stroke="#00B9D5" stroke-width="12" stroke-linecap="round" stroke-linejoin="round"/>
<circle cx="420" cy="620" r="14" fill="#FDDC02"/>
<circle cx="482" cy="560" r="14" fill="#FDDC02"/>
<circle cx="544" cy="590" r="14" fill="#FDDC02"/>
<circle cx="646" cy="486" r="14" fill="#FDDC02"/>
<circle cx="736" cy="520" r="14" fill="#FDDC02"/>
<circle cx="812" cy="448" r="14" fill="#FDDC02"/>
<rect x="920" y="462" width="168" height="22" rx="11" fill="#E8EDF5"/>
<rect x="920" y="500" width="124" height="14" rx="7" fill="#8AA0B8" fill-opacity="0.5"/>
<rect x="920" y="548" width="160" height="18" rx="9" fill="#12324D"/>
<rect x="920" y="582" width="132" height="18" rx="9" fill="#12324D"/>
<rect x="920" y="616" width="148" height="18" rx="9" fill="#12324D"/>
</svg>
